<svg id="visual" viewBox="0 0 900 600" width="900" height="600" xmlns="http://www.w3.org/2000/svg" xmlns:xlink="http://www.w3.org/1999/xlink" version="1.1"><g stroke-width="1" stroke-linejoin="bevel"><path d="M472 291L380 200L378 272Z" fill="#1d4e6b" stroke="#1d4e6b"></path><path d="M472 291L528 198L380 200Z" fill="#0c2435" stroke="#0c2435"></path><path d="M316 235L339 306L378 272Z" fill="#112e42" stroke="#112e42"></path><path d="M378 272L470 388L472 291Z" fill="#19435d" stroke="#19435d"></path><path d="M380 200L316 235L378 272Z" fill="#297ea6" stroke="#297ea6"></path><path d="M528 198L412 114L380 200Z" fill="#081a28" stroke="#081a28"></path><path d="M380 200L333 61L316 235Z" fill="#205a7a" stroke="#205a7a"></path><path d="M594 326L569 193L528 198Z" fill="#246688" stroke="#246688"></path><path d="M528 198L477 84L412 114Z" fill="#00101c" stroke="#00101c"></path><path d="M339 306L470 388L378 272Z" fill="#19435d" stroke="#19435d"></path><path d="M472 291L594 326L528 198Z" fill="#00101c" stroke="#00101c"></path><path d="M569 193L477 84L528 198Z" fill="#1d4e6b" stroke="#1d4e6b"></path><path d="M180 325L323 377L339 306Z" fill="#112e42" stroke="#112e42"></path><path d="M339 306L369 425L470 388Z" fill="#0c2435" stroke="#0c2435"></path><path d="M470 388L594 326L472 291Z" fill="#19435d" stroke="#19435d"></path><path d="M323 377L369 425L339 306Z" fill="#081a28" stroke="#081a28"></path><path d="M402 0L333 61L412 114Z" fill="#205a7a" stroke="#205a7a"></path><path d="M412 114L333 61L380 200Z" fill="#277297" stroke="#277297"></path><path d="M665 178L621 127L569 193Z" fill="#277297" stroke="#277297"></path><path d="M569 193L621 127L477 84Z" fill="#112e42" stroke="#112e42"></path><path d="M470 388L578 407L594 326Z" fill="#277297" stroke="#277297"></path><path d="M537 501L578 407L470 388Z" fill="#277297" stroke="#277297"></path><path d="M333 61L210 187L316 235Z" fill="#277297" stroke="#277297"></path><path d="M316 235L180 325L339 306Z" fill="#081a28" stroke="#081a28"></path><path d="M262 519L376 460L369 425Z" fill="#205a7a" stroke="#205a7a"></path><path d="M369 425L376 460L470 388Z" fill="#15384f" stroke="#15384f"></path><path d="M675 279L569 193L594 326Z" fill="#081a28" stroke="#081a28"></path><path d="M675 279L665 178L569 193Z" fill="#246688" stroke="#246688"></path><path d="M477 84L402 0L412 114Z" fill="#00101c" stroke="#00101c"></path><path d="M510 0L402 0L477 84Z" fill="#19435d" stroke="#19435d"></path><path d="M687 422L675 279L594 326Z" fill="#112e42" stroke="#112e42"></path><path d="M609 0L510 0L477 84Z" fill="#112e42" stroke="#112e42"></path><path d="M210 187L180 325L316 235Z" fill="#081a28" stroke="#081a28"></path><path d="M323 377L262 519L369 425Z" fill="#205a7a" stroke="#205a7a"></path><path d="M402 0L281 0L333 61Z" fill="#1d4e6b" stroke="#1d4e6b"></path><path d="M333 61L171 111L210 187Z" fill="#205a7a" stroke="#205a7a"></path><path d="M376 460L537 501L470 388Z" fill="#205a7a" stroke="#205a7a"></path><path d="M578 407L687 422L594 326Z" fill="#112e42" stroke="#112e42"></path><path d="M281 0L171 111L333 61Z" fill="#246688" stroke="#246688"></path><path d="M210 187L121 235L180 325Z" fill="#1d4e6b" stroke="#1d4e6b"></path><path d="M692 0L609 0L621 127Z" fill="#297ea6" stroke="#297ea6"></path><path d="M621 127L609 0L477 84Z" fill="#0c2435" stroke="#0c2435"></path><path d="M665 178L713 115L621 127Z" fill="#15384f" stroke="#15384f"></path><path d="M765 225L713 115L665 178Z" fill="#112e42" stroke="#112e42"></path><path d="M171 111L121 235L210 187Z" fill="#081a28" stroke="#081a28"></path><path d="M636 535L687 422L578 407Z" fill="#1d4e6b" stroke="#1d4e6b"></path><path d="M675 279L765 225L665 178Z" fill="#081a28" stroke="#081a28"></path><path d="M96 399L174 417L180 325Z" fill="#081a28" stroke="#081a28"></path><path d="M180 325L174 417L323 377Z" fill="#00101c" stroke="#00101c"></path><path d="M376 460L407 600L537 501Z" fill="#19435d" stroke="#19435d"></path><path d="M174 417L262 519L323 377Z" fill="#297ea6" stroke="#297ea6"></path><path d="M786 260L765 225L675 279Z" fill="#0c2435" stroke="#0c2435"></path><path d="M783 81L692 0L713 115Z" fill="#297ea6" stroke="#297ea6"></path><path d="M713 115L692 0L621 127Z" fill="#15384f" stroke="#15384f"></path><path d="M781 422L786 260L675 279Z" fill="#297ea6" stroke="#297ea6"></path><path d="M765 225L783 81L713 115Z" fill="#297ea6" stroke="#297ea6"></path><path d="M281 0L172 0L171 111Z" fill="#277297" stroke="#277297"></path><path d="M171 111L100 61L121 235Z" fill="#277297" stroke="#277297"></path><path d="M537 501L636 535L578 407Z" fill="#00101c" stroke="#00101c"></path><path d="M687 422L781 422L675 279Z" fill="#00101c" stroke="#00101c"></path><path d="M584 600L636 535L537 501Z" fill="#205a7a" stroke="#205a7a"></path><path d="M262 519L407 600L376 460Z" fill="#246688" stroke="#246688"></path><path d="M407 600L502 600L537 501Z" fill="#246688" stroke="#246688"></path><path d="M720 600L666 527L636 535Z" fill="#1d4e6b" stroke="#1d4e6b"></path><path d="M636 535L666 527L687 422Z" fill="#297ea6" stroke="#297ea6"></path><path d="M65 323L96 399L180 325Z" fill="#00101c" stroke="#00101c"></path><path d="M174 417L187 539L262 519Z" fill="#15384f" stroke="#15384f"></path><path d="M172 0L100 61L171 111Z" fill="#00101c" stroke="#00101c"></path><path d="M121 235L65 323L180 325Z" fill="#277297" stroke="#277297"></path><path d="M0 177L65 323L121 235Z" fill="#297ea6" stroke="#297ea6"></path><path d="M900 219L783 81L765 225Z" fill="#205a7a" stroke="#205a7a"></path><path d="M136 513L187 539L174 417Z" fill="#19435d" stroke="#19435d"></path><path d="M262 519L267 600L407 600Z" fill="#112e42" stroke="#112e42"></path><path d="M502 600L584 600L537 501Z" fill="#246688" stroke="#246688"></path><path d="M804 488L781 422L687 422Z" fill="#277297" stroke="#277297"></path><path d="M187 539L267 600L262 519Z" fill="#00101c" stroke="#00101c"></path><path d="M96 399L136 513L174 417Z" fill="#246688" stroke="#246688"></path><path d="M187 539L170 600L267 600Z" fill="#081a28" stroke="#081a28"></path><path d="M0 509L136 513L96 399Z" fill="#15384f" stroke="#15384f"></path><path d="M172 0L96 0L100 61Z" fill="#1d4e6b" stroke="#1d4e6b"></path><path d="M100 61L0 177L121 235Z" fill="#205a7a" stroke="#205a7a"></path><path d="M900 71L791 0L783 81Z" fill="#205a7a" stroke="#205a7a"></path><path d="M783 81L791 0L692 0Z" fill="#081a28" stroke="#081a28"></path><path d="M0 91L0 177L100 61Z" fill="#15384f" stroke="#15384f"></path><path d="M65 323L0 338L96 399Z" fill="#081a28" stroke="#081a28"></path><path d="M0 177L0 338L65 323Z" fill="#277297" stroke="#277297"></path><path d="M720 600L804 488L666 527Z" fill="#246688" stroke="#246688"></path><path d="M666 527L804 488L687 422Z" fill="#081a28" stroke="#081a28"></path><path d="M900 272L900 219L786 260Z" fill="#205a7a" stroke="#205a7a"></path><path d="M786 260L900 219L765 225Z" fill="#246688" stroke="#246688"></path><path d="M90 600L170 600L136 513Z" fill="#297ea6" stroke="#297ea6"></path><path d="M136 513L170 600L187 539Z" fill="#205a7a" stroke="#205a7a"></path><path d="M0 0L0 91L100 61Z" fill="#00101c" stroke="#00101c"></path><path d="M584 600L720 600L636 535Z" fill="#081a28" stroke="#081a28"></path><path d="M900 272L786 260L900 407Z" fill="#1d4e6b" stroke="#1d4e6b"></path><path d="M900 407L786 260L781 422Z" fill="#1d4e6b" stroke="#1d4e6b"></path><path d="M0 338L0 429L96 399Z" fill="#081a28" stroke="#081a28"></path><path d="M96 0L0 0L100 61Z" fill="#081a28" stroke="#081a28"></path><path d="M900 219L900 71L783 81Z" fill="#19435d" stroke="#19435d"></path><path d="M900 531L900 407L804 488Z" fill="#112e42" stroke="#112e42"></path><path d="M804 488L900 407L781 422Z" fill="#277297" stroke="#277297"></path><path d="M0 509L90 600L136 513Z" fill="#112e42" stroke="#112e42"></path><path d="M720 600L792 600L804 488Z" fill="#081a28" stroke="#081a28"></path><path d="M0 429L0 509L96 399Z" fill="#277297" stroke="#277297"></path><path d="M900 71L900 0L791 0Z" fill="#00101c" stroke="#00101c"></path><path d="M792 600L900 531L804 488Z" fill="#297ea6" stroke="#297ea6"></path><path d="M0 509L0 600L90 600Z" fill="#00101c" stroke="#00101c"></path><path d="M792 600L900 600L900 531Z" fill="#1d4e6b" stroke="#1d4e6b"></path></g></svg>