<svg version="1.2" xmlns="http://www.w3.org/2000/svg" viewBox="0 0 1063 595" width="1063" height="595">
	<title>containers</title>
	<style>
		.s0 { fill: #f2f2f2 } 
		.s1 { fill: #e6e6e6 } 
		.s2 { fill: #cccccc } 
		.s3 { fill: #6c63ff } 
		.s4 { fill: #3f3d56 } 
		.s5 { fill: #ffffff } 
		.s6 { fill: #fd6584 } 
	</style>
	<path class="s0" d="m428.6 467c18.7 13 37 26.7 57.8 35.7 51.6 22.2 111 11.9 165.3-2.6 54.3-14.4 109.7-32.8 165.4-25.3 31.5 4.2 61.4 16.6 91.8 25.8 30.5 9.3 63.3 15.5 94 7.2 30.8-8.3 58.5-34.7 59.3-66.6-232.1-42.9-447.3-44.2-633.6 25.8z"/>
	<path class="s0" d="m61 480c-25.9-0.6-53.6 13.9-61 38.8l140.6-5.8q-4-2.7-8-5.4c-21.6-14.4-45.6-27-71.6-27.6z"/>
	<path class="s0" d="m140.6 513c18.7 13 37 26.7 57.8 35.7 51.6 22.2 111 11.9 165.3-2.6 54.3-14.4 109.7-32.8 165.4-25.3 31.5 4.2 61.4 16.6 91.8 25.8 30.5 9.3 63.3 15.5 94 7.2 30.8-8.3 58.5-34.7 59.3-66.6-232.1-42.9-447.3-44.2-633.6 25.8z"/>
	<path class="s1" d="m452.3 298.9h-145.3q-1.6 0-3 0.6-1.5 0.6-2.6 1.7-1 1.1-1.6 2.5-0.6 1.4-0.6 3v52.9q0 1.6 0.6 3 0.6 1.5 1.6 2.6 1.1 1.1 2.6 1.7 1.4 0.6 3 0.6h145.3q1.6 0 3-0.6 1.5-0.6 2.6-1.7 1.1-1.1 1.7-2.6 0.6-1.4 0.6-3v-52.9q0-1.6-0.6-3-0.6-1.4-1.7-2.5-1.1-1.1-2.6-1.7-1.4-0.6-3-0.6z"/>
	<path fill-rule="evenodd" class="s2" d="m309.7 298.9h4v68.6h-4z"/>
	<path fill-rule="evenodd" class="s2" d="m326.7 298.9h4v68.6h-4z"/>
	<path fill-rule="evenodd" class="s2" d="m343.7 298.9h4v68.6h-4z"/>
	<path fill-rule="evenodd" class="s2" d="m360.7 298.9h4v68.6h-4z"/>
	<path fill-rule="evenodd" class="s2" d="m377.7 298.9h4v68.6h-4z"/>
	<path fill-rule="evenodd" class="s2" d="m394.7 298.9h4v68.6h-4z"/>
	<path fill-rule="evenodd" class="s2" d="m411.7 298.9h4v68.6h-4z"/>
	<path fill-rule="evenodd" class="s2" d="m428.7 298.9h4v68.6h-4z"/>
	<path fill-rule="evenodd" class="s2" d="m445.7 298.9h4v68.6h-4z"/>
	<path class="s1" d="m602.4 175l-17.9-38.4q-0.9-2.1-2.5-3.9-1.5-1.7-3.5-3-1.9-1.2-4.2-1.9-2.2-0.6-4.5-0.6h-21.1c3.3-5.6 3.3-12.5 0.1-18-3.3-5.6-9.2-9.1-15.6-9.1-6.5 0-12.4 3.5-15.6 9.1-3.3 5.5-3.2 12.4 0 18h-21q-2.4 0-4.6 0.6-2.2 0.7-4.2 1.9-2 1.3-3.5 3-1.5 1.8-2.5 3.9l-17.9 38.4c-1.1 2.5-1.6 5.2-1.5 7.9 0.2 2.8 1.1 5.4 2.6 7.7 1.4 2.3 3.5 4.2 5.9 5.6 2.4 1.3 5.1 2 7.8 2h49.5v186h10v-186h49.4c2.7 0 5.4-0.7 7.8-2 2.4-1.4 4.5-3.3 5.9-5.6 1.5-2.3 2.4-4.9 2.6-7.7 0.2-2.7-0.4-5.4-1.5-7.9z"/>
	<path class="s1" d="m809.3 298.9h-145.3q-1.6 0-3 0.6-1.5 0.6-2.6 1.7-1 1.1-1.6 2.5-0.6 1.4-0.6 3v52.9q0 1.6 0.6 3 0.6 1.5 1.6 2.6 1.1 1.1 2.6 1.7 1.4 0.6 3 0.6h145.3q1.6 0 3-0.6 1.5-0.6 2.6-1.7 1.1-1.1 1.7-2.6 0.6-1.4 0.6-3v-52.9q0-1.6-0.6-3-0.6-1.4-1.7-2.5-1.1-1.1-2.6-1.7-1.4-0.6-3-0.6z"/>
	<path fill-rule="evenodd" class="s2" d="m666.7 298.9h4v68.6h-4z"/>
	<path fill-rule="evenodd" class="s2" d="m683.7 298.9h4v68.6h-4z"/>
	<path fill-rule="evenodd" class="s2" d="m700.7 298.9h4v68.6h-4z"/>
	<path fill-rule="evenodd" class="s2" d="m717.7 298.9h4v68.6h-4z"/>
	<path fill-rule="evenodd" class="s2" d="m734.7 298.9h4v68.6h-4z"/>
	<path fill-rule="evenodd" class="s2" d="m751.7 298.9h4v68.6h-4z"/>
	<path fill-rule="evenodd" class="s2" d="m768.7 298.9h4v68.6h-4z"/>
	<path fill-rule="evenodd" class="s2" d="m785.7 298.9h4v68.6h-4z"/>
	<path fill-rule="evenodd" class="s2" d="m802.7 298.9h4v68.6h-4z"/>
	<path class="s1" d="m647.3 298.9h-145.3q-1.6 0-3 0.6-1.5 0.6-2.6 1.7-1 1.1-1.6 2.5-0.6 1.4-0.6 3v52.9q0 1.6 0.6 3 0.6 1.5 1.6 2.6 1.1 1.1 2.6 1.7 1.4 0.6 3 0.6h145.3q1.6 0 3-0.6 1.5-0.6 2.6-1.7 1.1-1.1 1.7-2.6 0.6-1.4 0.6-3v-52.9q0-1.6-0.6-3-0.6-1.4-1.7-2.5-1.1-1.1-2.6-1.7-1.4-0.6-3-0.6z"/>
	<path fill-rule="evenodd" class="s2" d="m504.7 298.9h4v68.6h-4z"/>
	<path fill-rule="evenodd" class="s2" d="m521.7 298.9h4v68.6h-4z"/>
	<path fill-rule="evenodd" class="s2" d="m538.7 298.9h4v68.6h-4z"/>
	<path fill-rule="evenodd" class="s2" d="m555.7 298.9h4v68.6h-4z"/>
	<path fill-rule="evenodd" class="s2" d="m572.7 298.9h4v68.6h-4z"/>
	<path fill-rule="evenodd" class="s2" d="m589.7 298.9h4v68.6h-4z"/>
	<path fill-rule="evenodd" class="s2" d="m606.7 298.9h4v68.6h-4z"/>
	<path fill-rule="evenodd" class="s2" d="m623.7 298.9h4v68.6h-4z"/>
	<path fill-rule="evenodd" class="s2" d="m640.7 298.9h4v68.6h-4z"/>
	<path class="s1" d="m820.3 229.9h-145.3q-1.6 0-3 0.6-1.5 0.6-2.6 1.7-1 1.1-1.6 2.5-0.6 1.4-0.6 3v52.9q0 1.6 0.6 3 0.6 1.5 1.6 2.6 1.1 1.1 2.6 1.7 1.4 0.6 3 0.6h145.3q1.6 0 3-0.6 1.5-0.6 2.6-1.7 1.1-1.1 1.7-2.6 0.6-1.4 0.6-3v-52.9q0-1.6-0.6-3-0.6-1.4-1.7-2.5-1.1-1.1-2.6-1.7-1.4-0.6-3-0.6z"/>
	<path fill-rule="evenodd" class="s2" d="m677.7 229.9h4v68.6h-4z"/>
	<path fill-rule="evenodd" class="s2" d="m694.7 229.9h4v68.6h-4z"/>
	<path fill-rule="evenodd" class="s2" d="m711.7 229.9h4v68.6h-4z"/>
	<path fill-rule="evenodd" class="s2" d="m728.7 229.9h4v68.6h-4z"/>
	<path fill-rule="evenodd" class="s2" d="m745.7 229.9h4v68.6h-4z"/>
	<path fill-rule="evenodd" class="s2" d="m762.7 229.9h4v68.6h-4z"/>
	<path fill-rule="evenodd" class="s2" d="m779.7 229.9h4v68.6h-4z"/>
	<path fill-rule="evenodd" class="s2" d="m796.7 229.9h4v68.6h-4z"/>
	<path fill-rule="evenodd" class="s2" d="m813.7 229.9h4v68.6h-4z"/>
	<path class="s3" d="m777.3 303.9h-145.3q-1.6 0-3 0.6-1.5 0.6-2.6 1.7-1 1.1-1.6 2.5-0.6 1.4-0.6 3v52.9q0 1.6 0.6 3 0.6 1.5 1.6 2.6 1.1 1.1 2.6 1.7 1.4 0.6 3 0.6h145.3q1.6 0 3-0.6 1.5-0.6 2.6-1.7 1.1-1.1 1.7-2.6 0.6-1.4 0.6-3v-52.9q0-1.6-0.6-3-0.6-1.4-1.7-2.5-1.1-1.1-2.6-1.7-1.4-0.6-3-0.6z"/>
	<path fill-rule="evenodd" class="s4" d="m634.7 303.9h4v68.6h-4z"/>
	<path fill-rule="evenodd" class="s4" d="m651.7 303.9h4v68.6h-4z"/>
	<path fill-rule="evenodd" class="s4" d="m668.7 303.9h4v68.6h-4z"/>
	<path fill-rule="evenodd" class="s4" d="m685.7 303.9h4v68.6h-4z"/>
	<path fill-rule="evenodd" class="s4" d="m702.7 303.9h4v68.6h-4z"/>
	<path fill-rule="evenodd" class="s4" d="m719.7 303.9h4v68.6h-4z"/>
	<path fill-rule="evenodd" class="s4" d="m736.7 303.9h4v68.6h-4z"/>
	<path fill-rule="evenodd" class="s4" d="m753.7 303.9h4v68.6h-4z"/>
	<path fill-rule="evenodd" class="s4" d="m770.7 303.9h4v68.6h-4z"/>
	<path class="s3" d="m594.3 303.9h-145.3q-1.6 0-3 0.6-1.5 0.6-2.6 1.7-1 1.1-1.6 2.5-0.6 1.4-0.6 3v52.9q0 1.6 0.6 3 0.6 1.5 1.6 2.6 1.1 1.1 2.6 1.7 1.4 0.6 3 0.6h145.3q1.6 0 3-0.6 1.5-0.6 2.6-1.7 1.1-1.1 1.7-2.6 0.6-1.4 0.6-3v-52.9q0-1.6-0.6-3-0.6-1.4-1.7-2.5-1.1-1.1-2.6-1.7-1.4-0.6-3-0.6z"/>
	<path fill-rule="evenodd" class="s4" d="m451.7 303.9h4v68.6h-4z"/>
	<path fill-rule="evenodd" class="s4" d="m468.7 303.9h4v68.6h-4z"/>
	<path fill-rule="evenodd" class="s4" d="m485.7 303.9h4v68.6h-4z"/>
	<path fill-rule="evenodd" class="s4" d="m502.7 303.9h4v68.6h-4z"/>
	<path fill-rule="evenodd" class="s4" d="m519.7 303.9h4v68.6h-4z"/>
	<path fill-rule="evenodd" class="s4" d="m536.7 303.9h4v68.6h-4z"/>
	<path fill-rule="evenodd" class="s4" d="m553.7 303.9h4v68.6h-4z"/>
	<path fill-rule="evenodd" class="s4" d="m570.7 303.9h4v68.6h-4z"/>
	<path fill-rule="evenodd" class="s4" d="m587.7 303.9h4v68.6h-4z"/>
	<path class="s3" d="m649.3 234.9h-145.3q-1.6 0-3 0.6-1.5 0.6-2.6 1.7-1 1.1-1.6 2.5-0.6 1.4-0.6 3v52.9q0 1.6 0.6 3 0.6 1.5 1.6 2.6 1.1 1.1 2.6 1.7 1.4 0.6 3 0.6h145.3q1.6 0 3-0.6 1.5-0.6 2.6-1.7 1.1-1.1 1.7-2.6 0.6-1.4 0.6-3v-52.9q0-1.6-0.6-3-0.6-1.4-1.7-2.5-1.1-1.1-2.6-1.7-1.4-0.6-3-0.6z"/>
	<path fill-rule="evenodd" class="s4" d="m506.7 234.9h4v68.6h-4z"/>
	<path fill-rule="evenodd" class="s4" d="m523.7 234.9h4v68.6h-4z"/>
	<path fill-rule="evenodd" class="s4" d="m540.7 234.9h4v68.6h-4z"/>
	<path fill-rule="evenodd" class="s4" d="m557.7 234.9h4v68.6h-4z"/>
	<path fill-rule="evenodd" class="s4" d="m574.7 234.9h4v68.6h-4z"/>
	<path fill-rule="evenodd" class="s4" d="m591.7 234.9h4v68.6h-4z"/>
	<path fill-rule="evenodd" class="s4" d="m608.7 234.9h4v68.6h-4z"/>
	<path fill-rule="evenodd" class="s4" d="m625.7 234.9h4v68.6h-4z"/>
	<path fill-rule="evenodd" class="s4" d="m642.7 234.9h4v68.6h-4z"/>
	<path class="s3" d="m399.3 303.9h-145.3q-1.6 0-3 0.6-1.5 0.6-2.6 1.7-1 1.1-1.6 2.5-0.6 1.4-0.6 3v52.9q0 1.6 0.6 3 0.6 1.5 1.6 2.6 1.1 1.1 2.6 1.7 1.4 0.6 3 0.6h145.3q1.6 0 3-0.6 1.5-0.6 2.6-1.7 1.1-1.1 1.7-2.6 0.6-1.4 0.6-3v-52.9q0-1.6-0.6-3-0.6-1.4-1.7-2.5-1.1-1.1-2.6-1.7-1.4-0.6-3-0.6z"/>
	<path fill-rule="evenodd" class="s4" d="m256.7 303.9h4v68.6h-4z"/>
	<path fill-rule="evenodd" class="s4" d="m273.7 303.9h4v68.6h-4z"/>
	<path fill-rule="evenodd" class="s4" d="m290.7 303.9h4v68.6h-4z"/>
	<path fill-rule="evenodd" class="s4" d="m307.7 303.9h4v68.6h-4z"/>
	<path fill-rule="evenodd" class="s4" d="m324.7 303.9h4v68.6h-4z"/>
	<path fill-rule="evenodd" class="s4" d="m341.7 303.9h4v68.6h-4z"/>
	<path fill-rule="evenodd" class="s4" d="m358.7 303.9h4v68.6h-4z"/>
	<path fill-rule="evenodd" class="s4" d="m375.7 303.9h4v68.6h-4z"/>
	<path fill-rule="evenodd" class="s4" d="m392.7 303.9h4v68.6h-4z"/>
	<path class="s3" d="m435.3 234.9h-145.3q-1.6 0-3 0.6-1.5 0.6-2.6 1.7-1 1.1-1.6 2.5-0.6 1.4-0.6 3v52.9q0 1.6 0.6 3 0.6 1.5 1.6 2.6 1.1 1.1 2.6 1.7 1.4 0.6 3 0.6h145.3q1.6 0 3-0.6 1.5-0.6 2.6-1.7 1.1-1.1 1.7-2.6 0.6-1.4 0.6-3v-52.9q0-1.6-0.6-3-0.6-1.4-1.7-2.5-1.1-1.1-2.6-1.7-1.4-0.6-3-0.6z"/>
	<path fill-rule="evenodd" class="s4" d="m292.7 234.9h4v68.6h-4z"/>
	<path fill-rule="evenodd" class="s4" d="m309.7 234.9h4v68.6h-4z"/>
	<path fill-rule="evenodd" class="s4" d="m326.7 234.9h4v68.6h-4z"/>
	<path fill-rule="evenodd" class="s4" d="m343.7 234.9h4v68.6h-4z"/>
	<path fill-rule="evenodd" class="s4" d="m360.7 234.9h4v68.6h-4z"/>
	<path fill-rule="evenodd" class="s4" d="m377.7 234.9h4v68.6h-4z"/>
	<path fill-rule="evenodd" class="s4" d="m394.7 234.9h4v68.6h-4z"/>
	<path fill-rule="evenodd" class="s4" d="m411.7 234.9h4v68.6h-4z"/>
	<path fill-rule="evenodd" class="s4" d="m428.7 234.9h4v68.6h-4z"/>
	<path class="s4" d="m905.3 376.5q-0.1-0.3-0.2-0.6-0.1-0.3-0.2-0.7-0.1-0.3-0.2-0.6-0.2-0.3-0.3-0.6l-17.9-38.4q-0.9-2.1-2.5-3.9-1.5-1.7-3.5-3-1.9-1.2-4.2-1.9-2.2-0.6-4.5-0.6h-73.2q-2.4 0-4.6 0.6-2.2 0.7-4.2 1.9-2 1.3-3.5 3-1.5 1.8-2.5 3.9l-14.7 31.6h-418.4l-14.2-30.6q-0.9-2.1-2.5-3.9-1.5-1.7-3.5-3-1.9-1.2-4.2-1.9-2.2-0.6-4.5-0.6h-73.2q-1.1 0-2.1 0.1-1.1 0.1-2.1 0.4-1 0.3-2 0.7-0.9 0.4-1.9 0.9l-12.3-22c-0.8-1.4-2.1-2.6-3.6-3.2-1.5-0.7-3.2-0.8-4.8-0.4-1.6 0.4-3.1 1.4-4.1 2.7-1 1.3-1.5 2.9-1.5 4.6v172.6c0 2.6 0.5 5.1 1.4 7.5 1 2.4 2.5 4.5 4.3 6.3 1.8 1.9 4 3.3 6.3 4.3 2.4 1 5 1.5 7.5 1.5h560.2q2 0 3.9-0.4 1.9-0.4 3.7-1.2 1.8-0.7 3.4-1.8 1.6-1.1 3-2.5l94.7-96.9c1.5-1.5 2.8-3.3 3.7-5.2 1-2 1.6-4.1 1.8-6.3 0.3-2.1 0.1-4.3-0.3-6.4-0.5-2.1-1.3-4.1-2.5-6z"/>
	<path class="s5" d="m806.8 364.7h-9.2q-1.5 0-2.9-0.6-1.3-0.6-2.4-1.6-1-1-1.6-2.4-0.5-1.4-0.5-2.8v-10.2q0-1.5 0.5-2.9 0.6-1.3 1.6-2.4 1.1-1 2.4-1.6 1.4-0.5 2.9-0.5h9.2q1.4 0 2.8 0.5 1.3 0.6 2.4 1.6 1 1.1 1.6 2.4 0.6 1.4 0.6 2.9v10.2q0 1.4-0.6 2.8-0.6 1.4-1.6 2.4-1.1 1-2.4 1.6-1.4 0.6-2.8 0.6z"/>
	<path class="s5" d="m839.8 364.7h-9.2q-1.5 0-2.9-0.6-1.3-0.6-2.4-1.6-1-1-1.6-2.4-0.5-1.4-0.5-2.8v-10.2q0-1.5 0.5-2.9 0.6-1.3 1.6-2.4 1.1-1 2.4-1.6 1.4-0.5 2.9-0.5h9.2q1.4 0 2.8 0.5 1.3 0.6 2.4 1.6 1 1.1 1.6 2.4 0.6 1.4 0.6 2.9v10.2q0 1.4-0.6 2.8-0.6 1.4-1.6 2.4-1.1 1-2.4 1.6-1.4 0.6-2.8 0.6z"/>
	<path class="s5" d="m872.8 364.7h-9.2q-1.5 0-2.9-0.6-1.3-0.6-2.4-1.6-1-1-1.6-2.4-0.5-1.4-0.5-2.8v-10.2q0-1.5 0.5-2.9 0.6-1.3 1.6-2.4 1.1-1 2.4-1.6 1.4-0.5 2.9-0.5h9.2q1.4 0 2.8 0.5 1.3 0.6 2.4 1.6 1 1.1 1.6 2.4 0.6 1.4 0.6 2.9v10.2q0 1.4-0.6 2.8-0.6 1.4-1.6 2.4-1.1 1-2.4 1.6-1.4 0.6-2.8 0.6z"/>
	<path class="s5" d="m504.8 165.7h-9.2q-1.5 0-2.9-0.6-1.3-0.6-2.4-1.6-1-1-1.6-2.4-0.5-1.4-0.5-2.8v-10.2q0-1.5 0.5-2.9 0.6-1.3 1.6-2.4 1.1-1 2.4-1.6 1.4-0.5 2.9-0.5h9.2q1.4 0 2.8 0.5 1.3 0.6 2.4 1.6 1 1.1 1.6 2.4 0.6 1.4 0.6 2.9v10.2q0 1.4-0.6 2.8-0.6 1.4-1.6 2.4-1.1 1-2.4 1.6-1.4 0.6-2.8 0.6z"/>
	<path class="s5" d="m537.8 165.7h-9.2q-1.5 0-2.9-0.6-1.3-0.6-2.4-1.6-1-1-1.6-2.4-0.5-1.4-0.5-2.8v-10.2q0-1.5 0.5-2.9 0.6-1.3 1.6-2.4 1.1-1 2.4-1.6 1.4-0.5 2.9-0.5h9.2q1.4 0 2.8 0.5 1.3 0.6 2.4 1.6 1 1.1 1.6 2.4 0.6 1.4 0.6 2.9v10.2q0 1.4-0.6 2.8-0.6 1.4-1.6 2.4-1.1 1-2.4 1.6-1.4 0.6-2.8 0.6z"/>
	<path class="s5" d="m570.8 165.7h-9.2q-1.5 0-2.9-0.6-1.3-0.6-2.4-1.6-1-1-1.6-2.4-0.5-1.4-0.5-2.8v-10.2q0-1.5 0.5-2.9 0.6-1.3 1.6-2.4 1.1-1 2.4-1.6 1.4-0.5 2.9-0.5h9.2q1.4 0 2.8 0.5 1.3 0.6 2.4 1.6 1 1.1 1.6 2.4 0.6 1.4 0.6 2.9v10.2q0 1.4-0.6 2.8-0.6 1.4-1.6 2.4-1.1 1-2.4 1.6-1.4 0.6-2.8 0.6z"/>
	<path class="s5" d="m256.8 365.7h-9.2q-1.5 0-2.9-0.6-1.3-0.6-2.4-1.6-1-1-1.6-2.4-0.5-1.4-0.5-2.8v-10.2q0-1.5 0.5-2.9 0.6-1.3 1.6-2.4 1.1-1 2.4-1.6 1.4-0.5 2.9-0.5h9.2q1.4 0 2.8 0.5 1.3 0.6 2.4 1.6 1 1.1 1.6 2.4 0.6 1.4 0.6 2.9v10.2q0 1.4-0.6 2.8-0.6 1.4-1.6 2.4-1.1 1-2.4 1.6-1.4 0.6-2.8 0.6z"/>
	<path class="s5" d="m289.8 365.7h-9.2q-1.5 0-2.9-0.6-1.3-0.6-2.4-1.6-1-1-1.6-2.4-0.5-1.4-0.5-2.8v-10.2q0-1.5 0.5-2.9 0.6-1.3 1.6-2.4 1.1-1 2.4-1.6 1.4-0.5 2.9-0.5h9.2q1.4 0 2.8 0.5 1.3 0.6 2.4 1.6 1 1.1 1.6 2.4 0.6 1.4 0.6 2.9v10.2q0 1.4-0.6 2.8-0.6 1.4-1.6 2.4-1.1 1-2.4 1.6-1.4 0.6-2.8 0.6z"/>
	<path class="s5" d="m322.8 365.7h-9.2q-1.5 0-2.9-0.6-1.3-0.6-2.4-1.6-1-1-1.6-2.4-0.5-1.4-0.5-2.8v-10.2q0-1.5 0.5-2.9 0.6-1.3 1.6-2.4 1.1-1 2.4-1.6 1.4-0.5 2.9-0.5h9.2q1.4 0 2.8 0.5 1.3 0.6 2.4 1.6 1 1.1 1.6 2.4 0.6 1.4 0.6 2.9v10.2q0 1.4-0.6 2.8-0.6 1.4-1.6 2.4-1.1 1-2.4 1.6-1.4 0.6-2.8 0.6z"/>
	<path class="s3" d="m199.7 471c-25.9-0.6-53.7 13.9-61.1 38.7l140.7-5.7q-4-2.8-8.1-5.4c-21.5-14.4-45.6-27-71.5-27.6z"/>
	<path class="s3" d="m279.3 504c18.7 12.9 36.9 26.7 57.7 35.7 51.6 22.2 111 11.8 165.3-2.6 54.3-14.4 109.7-32.8 165.4-25.3 31.6 4.2 61.4 16.5 91.9 25.8 30.4 9.3 63.2 15.5 94 7.2 30.7-8.4 58.5-34.8 59.3-66.6-232.2-42.9-447.4-44.2-633.6 25.8z"/>
	<path fill-rule="evenodd" class="s6" d="m767.1 86.8c-14.8 0-26.7-11.9-26.7-26.7 0-14.7 11.9-26.7 26.7-26.7 14.7 0 26.7 12 26.7 26.7 0 14.8-12 26.7-26.7 26.7z"/>
	<path class="s1" d="m826.8 47.5q-0.5-1.9-1.6-3.5-1.1-1.6-2.6-2.8-1.5-1.3-3.2-2-1.8-0.8-3.7-1-0.1 0-0.1 0 0 0 0 0 0 0-0.1 0 0 0 0 0 0 0-0.1 0 0 0 0 0-0.1 0-0.1 0 0-0.1 0-0.1c-9-1.1-18.9 1.7-25.6 7.8l-0.1 0.1q-1.3 1.2-2.8 2-1.5 0.8-3.2 1.2-1.7 0.4-3.4 0.4-1.7 0-3.4-0.5-0.5-0.1-0.9-0.2-0.5-0.1-1-0.1-0.4-0.1-0.9-0.1-0.5 0-1 0-2 0.1-3.9 0.9-1.9 0.7-3.5 2-1.6 1.3-2.7 3-1.1 1.7-1.7 3.6 0 0.3 0 0.5 0 0.2 0.1 0.5 0.1 0.2 0.3 0.4 0.1 0.2 0.3 0.3 0.3 0.3 0.7 0.5 0.3 0.2 0.6 0.4 0.4 0.2 0.8 0.3 0.3 0.1 0.7 0.2 3.3 0.7 6.7 1.3 6.5 1.2 13.1 1.9 4.4 0.4 8.8 0.7 9.1 0.6 18.1 0.3c3-0.1 5.9-0.2 8.7-1.5q0.7-0.4 1.4-0.9 0.7-0.4 1.3-1 0.6-0.5 1.2-1.1 0.5-0.7 1-1.3 0.9-1.4 1.5-2.9 0.5-1.5 0.8-3 0.2-1.6 0.1-3.2-0.1-1.6-0.6-3.1z"/>
	<path class="s1" d="m771.9 86.4q0-0.4-0.1-0.9 0-0.4-0.1-0.8 0-0.4-0.1-0.8-0.1-0.4-0.3-0.8-0.5-1.9-1.6-3.5-1.1-1.6-2.6-2.8-1.4-1.3-3.2-2-1.8-0.8-3.7-1-0.1 0-0.1 0 0 0 0 0 0 0-0.1 0 0 0 0 0 0 0-0.1 0 0 0 0 0 0 0-0.1 0 0-0.1 0-0.1-1.9-0.2-3.7-0.2-1.9 0-3.8 0.2-1.8 0.2-3.6 0.6-1.9 0.4-3.6 1-1.5 0.4-3 1.1-1.5 0.7-2.8 1.5-1.4 0.8-2.7 1.7-1.3 0.9-2.5 2-1.2 1.2-2.8 2-1.5 0.8-3.2 1.2-1.7 0.4-3.4 0.4-1.7 0-3.4-0.5-0.5-0.1-0.9-0.2-0.5-0.1-1-0.1-0.4-0.1-0.9-0.1-0.5 0-1 0-2 0.1-3.9 0.9-1.9 0.7-3.5 2-1.6 1.3-2.7 3-1.1 1.7-1.7 3.6 0 0.3 0 0.5 0 0.2 0.1 0.5 0.1 0.2 0.3 0.4 0.1 0.2 0.3 0.3 0.3 0.3 0.7 0.5 0.3 0.2 0.6 0.4 0.4 0.2 0.8 0.3 0.3 0.1 0.7 0.2 3.3 0.7 6.7 1.3 6.5 1.2 13.1 1.9 3.4 0.3 6.7 0.6 3.4 0.2 6.8 0.3 3.3 0.2 6.7 0.2 3.4 0 6.8-0.1c2.9-0.1 5.8-0.2 8.6-1.5q0.7-0.4 1.4-0.9 0.7-0.4 1.3-1 0.7-0.5 1.2-1.1 0.6-0.7 1-1.3 0.7-1 1.2-2.1 0.4-1.1 0.7-2.2 0.3-1.1 0.5-2.3 0.1-1.1 0-2.3z"/>
	<path class="s4" d="m781.8 151.6q-0.1 0.5-0.1 1.1 0 0.5 0 1 0.1 0.6 0.3 1.1 0.2 0.5 0.4 0.9 0.4 0.5 0.8 0.8 0.5 0.4 1 0.5 0.5 0.2 1.1 0.2 0.6 0 1.1-0.2c2.8-0.8 5.6-1.9 8.3-2.8q0.3-0.1 0.5-0.3 0.3-0.2 0.4-0.4 0.2-0.3 0.2-0.6 0.1-0.3 0-0.5-0.1-0.3-0.3-0.6-0.2-0.2-0.4-0.3-0.3-0.2-0.6-0.2-0.3-0.1-0.6 0l-6.9 2.4c-0.5 0.1-1 0.3-1.6 0.5 0 0-0.2 0-0.2 0 0 0 0.2 0.1 0 0q-0.2 0 0 0.1l-0.1-0.1c0.1 0.1-0.1 0-0.1-0.1 0 0-0.1-0.2-0.1 0q0-0.1 0-0.1 0 0 0-0.1-0.1 0-0.1 0 0-0.1 0-0.1c0.1 0.2-0.1-0.2-0.1-0.3q0-0.2 0-0.5 0-0.2 0-0.4 0-0.3 0-0.5 0.1-0.2 0.1-0.5 0-0.3-0.1-0.5-0.1-0.3-0.3-0.5-0.2-0.2-0.5-0.4-0.3-0.1-0.6-0.1-0.3 0-0.6 0.2-0.2 0.1-0.4 0.3-0.2 0.2-0.4 0.5-0.1 0.2-0.1 0.5z"/>
	<path class="s4" d="m670.1 156.9l7.4 9.3c1 1.2 3-0.1 2.5-1.4-0.9-2.8 2.3-4.4 4.5-4.8 2.9-0.6 5.8-0.5 8.6-1.8 1.7-0.8 0.2-3.4-1.5-2.6-3.3 1.5-7 0.8-10.3 2.2-2.9 1.3-5.2 4.5-4.2 7.8l2.5-1.5-7.3-9.3q-0.3-0.2-0.5-0.3-0.3-0.2-0.6-0.2-0.3 0-0.6 0.2-0.3 0.1-0.5 0.3-0.2 0.2-0.3 0.5-0.1 0.2-0.1 0.5 0 0.3 0.1 0.6 0.1 0.3 0.3 0.5z"/>
</svg>